name processed_emg_signals												
nRows=132												
nColumns=7												
 												
endheader												
time	RGLTMED	RRF	RADDLONG	RST	RTA	RGM						
3.022	0.03526558	0.077851653	0.065335243	0.04489653	0.26566058	0.038859299						
3.023	0.034877335	0.079081932	0.065193086	0.045048953	0.267059605	0.03916861						
3.024	0.034497418	0.080302837	0.06505204	0.045187105	0.26846373	0.039464742						
3.025	0.034126093	0.081513463	0.064912037	0.045310373	0.269874164	0.039747573						
3.026	0.033763607	0.082712916	0.064773005	0.045418146	0.271292109	0.040017009						
3.027	0.033410188	0.083900314	0.06463487	0.045509815	0.272718748	0.040272982						
3.028	0.033066047	0.085074786	0.064497559	0.045584777	0.274155252	0.040515449						
3.029	0.032731375	0.08623548	0.064360998	0.045642434	0.275602767	0.040744392						
3.03	0.032406346	0.087381552	0.06422511	0.045682196	0.277062418	0.040959819						
3.031	0.032091114	0.088512177	0.06408982	0.045703478	0.278535305	0.041161761						
3.032	0.031785818	0.089626545	0.063955054	0.045705704	0.280022496	0.041350274						
3.033	0.031490576	0.09072386	0.063820733	0.045688311	0.281525027	0.041525438						
3.034	0.031205491	0.091803345	0.063686784	0.045650744	0.283043899	0.041687356						
3.035	0.030930646	0.092864237	0.06355313	0.04559246	0.284580072	0.041836153						
3.036	0.030666109	0.093905791	0.063419697	0.04551293	0.286134467	0.041971977						
3.037	0.030411928	0.094927281	0.063286411	0.04541164	0.287707956	0.042094998						
3.038	0.030168137	0.095927998	0.063153197	0.045288091	0.289301366	0.042205407						
3.039	0.02993475	0.096907248	0.063019983	0.045141801	0.290915471	0.042303415						
3.04	0.029711769	0.09786436	0.062886698	0.044972305	0.29255099	0.042389255						
3.041	0.029499175	0.098798677	0.062753269	0.044779158	0.294208586	0.042463178						
3.042	0.029296935	0.099709563	0.062619626	0.044561935	0.295888859	0.042525454						
3.043	0.029105003	0.1005964	0.062485701	0.044320234	0.297592347	0.042576372						
3.044	0.028923312	0.101458587	0.062351426	0.044053673	0.299319522	0.042616238						
3.045	0.028751786	0.102295544	0.062216732	0.043761897	0.301070785	0.042645374						
3.046	0.02859033	0.103106709	0.062081554	0.043444573	0.302846465	0.042664121						
3.047	0.028438836	0.103891538	0.061945827	0.043101397	0.304646818	0.042672833						
3.048	0.028297184	0.104649506	0.061809486	0.042732093	0.30647202	0.042671879						
3.049	0.028165236	0.105380109	0.06167247	0.042336411	0.308322168	0.042661645						
3.05	0.028042846	0.106082858	0.061534715	0.041914133	0.310197278	0.042642525						
3.051	0.027929851	0.106757288	0.061396162	0.041465072	0.31209728	0.042614931						
3.052	0.027826078	0.107402947	0.06125675	0.040989074	0.314022019	0.042579284						
3.053	0.02773134	0.108019408	0.061116422	0.040486016	0.315971249	0.042536016						
3.054	0.027645442	0.108606258	0.060975119	0.039955812	0.317944638	0.042485569						
3.055	0.027568174	0.109163107	0.060832785	0.039398411	0.31994176	0.042428396						
3.056	0.027499317	0.109689582	0.060689365	0.0388138	0.321962096	0.042364956						
3.057	0.027438642	0.11018533	0.060544805	0.038202002	0.324005037	0.042295719						
3.058	0.027385909	0.110650017	0.060399051	0.037563079	0.326069875	0.042221159						
3.059	0.027340872	0.111083328	0.060252052	0.036897136	0.328155811	0.042141757						
3.06	0.027303272	0.111484968	0.060103756	0.036204316	0.330261949	0.042058001						
3.061	0.027272843	0.111854661	0.059954114	0.035484805	0.332387298	0.04197038						
3.062	0.027249314	0.112192151	0.059803077	0.034738832	0.334530774	0.041879391						
3.063	0.027232402	0.112497201	0.059650597	0.033966671	0.336691195	0.041785529						
3.064	0.02722182	0.112769594	0.059496627	0.033168639	0.338867288	0.041689295						
3.065	0.027217276	0.113009132	0.059341122	0.032345101	0.341057689	0.041591189						
3.066	0.027218467	0.11321564	0.059184036	0.031496466	0.343260939	0.041491713						
3.067	0.027225091	0.113388957	0.059025327	0.030623192	0.345475491	0.041391366						
3.068	0.027236836	0.113528948	0.058864952	0.029725785	0.347699711	0.04129065						
3.069	0.027253388	0.113635495	0.058702869	0.028804799	0.349931879	0.04119006						
3.07	0.02727443	0.113708499	0.058539037	0.02786084	0.35217019	0.041090094						
3.071	0.027299639	0.113747885	0.058373417	0.02689456	0.354412759	0.040991241						
3.072	0.027328692	0.113753596	0.058205969	0.025906666	0.356657625	0.040893991						
3.073	0.027361261	0.113725594	0.058036656	0.024897915	0.358902749	0.040798825						
3.074	0.02739702	0.113663865	0.057865441	0.023869114	0.361146022	0.040706221						
3.075	0.027435637	0.113568414	0.057692287	0.022821124	0.363385269	0.04061665						
3.076	0.027476783	0.113439266	0.057517158	0.02175486	0.365618247	0.040530577						
3.077	0.027520128	0.113276468	0.057340021	0.020671288	0.367842657	0.040448459						
3.078	0.027565342	0.113080088	0.05716084	0.019571429	0.370056142	0.040370744						
3.079	0.027612094	0.112850216	0.056979583	0.018456355	0.372256294	0.040297872						
3.08	0.027660057	0.112586961	0.056796217	0.017327196	0.37444066	0.040230275						
3.081	0.027708905	0.112290457	0.056610711	0.016185133	0.376606745	0.040168373						
3.082	0.027758314	0.111960857	0.056423032	0.015031402	0.378752016	0.040112578						
3.083	0.027807963	0.111598337	0.056233151	0.013867294	0.380873911	0.040063289						
3.084	0.027857535	0.111203094	0.056041038	0.012694151	0.382969841	0.040020895						
3.085	0.027906716	0.110775349	0.055846664	0.011513374	0.385037197	0.039985773						
3.086	0.027955197	0.110315343	0.05565	0.010326412	0.387073357	0.039958288						
3.087	0.028002673	0.109823342	0.05545102	0.009134773	0.389075688	0.039938792						
3.088	0.028048845	0.109299632	0.055249696	0.007940014	0.391041557	0.039927623						
3.089	0.02809342	0.108744523	0.055046003	0.006743746	0.392968333	0.039925107						
3.09	0.028136111	0.108158348	0.054839915	0.005547634	0.394853394	0.039931557						
3.091	0.028176637	0.107541462	0.054631409	0.004353391	0.396694135	0.03994727						
3.092	0.028214726	0.106894243	0.054420462	0.003162785	0.398487972	0.039972531						
3.093	0.028250113	0.106217092	0.05420705	0.001977631	0.400232349	0.040007609						
3.094	0.028282539	0.105510433	0.053991154	0.000799794	0.401924744	0.040052757						
3.095	0.028311756	0.104774712	0.053772753	0.000368809	0.403562677	0.040108218						
3.096	0.028337525	0.104010398	0.053551829	0.001526219	0.405143713	0.040174214						
3.097	0.028359616	0.103217982	0.053328364	0.002670427	0.406665469	0.040250955						
3.098	0.028377807	0.102397979	0.053102342	0.00379938	0.408125621	0.040338637						
3.099	0.028391889	0.101550924	0.05287375	0.004910979	0.40952191	0.040437438						
3.1	0.028401662	0.100677375	0.052642573	0.006003086	0.410852146	0.040547522						
3.101	0.028406937	0.099777912	0.052408801	0.00707352	0.412114216	0.040669037						
3.102	0.028407537	0.098853134	0.052172425	0.008120058	0.413306088	0.040802117						
3.103	0.028403297	0.097903664	0.051933437	0.009140444	0.414425818	0.04094688						
3.104	0.028394062	0.096930142	0.051691831	0.010132381	0.415471554	0.041103427						
3.105	0.028379692	0.095933231	0.051447606	0.01109354	0.416441541	0.041271848						
3.106	0.028360059	0.094913611	0.05120076	0.012021559	0.417334129	0.041452214						
3.107	0.028335046	0.093871981	0.050951295	0.012914045	0.418147775	0.041644583						
3.108	0.028304552	0.092809059	0.050699216	0.013768577	0.418881049	0.041849						
3.109	0.028268489	0.091725582	0.05044453	0.014582707	0.419532638	0.042065493						
3.11	0.028226783	0.0906223	0.050187248	0.015353964	0.420101353	0.042294077						
3.111	0.028179373	0.089499983	0.049927383	0.016079854	0.42058613	0.042534753						
3.112	0.028126213	0.088359415	0.049664953	0.016757865	0.420986035	0.042787508						
3.113	0.028067273	0.087201394	0.049399977	0.017385466	0.421300269	0.043052318						
3.114	0.028002536	0.086026733	0.049132481	0.017960114	0.421528172	0.043329144						
3.115	0.027932003	0.084836259	0.048862491	0.018479254	0.421669223	0.043617934						
3.116	0.027855687	0.083630809	0.048590041	0.018940322	0.421723044	0.043918625						
3.117	0.027773618	0.082411235	0.048315165	0.019340748	0.421689406	0.044231143						
3.118	0.027685844	0.081178398	0.048037904	0.019677959	0.421568228	0.044555401						
3.119	0.027592425	0.079933168	0.047758303	0.019949382	0.421359579	0.044891303						
3.12	0.02749344	0.078676427	0.04747641	0.020152449	0.42106368	0.04523874						
3.121	0.027388983	0.077409064	0.04719228	0.020284596	0.420680906	0.045597595						
3.122	0.027279166	0.076131975	0.04690597	0.020343268	0.420211786	0.045967742						
3.123	0.027164115	0.074846064	0.046617543	0.020325927	0.419657002	0.046349044						
3.124	0.027043975	0.073552241	0.046327068	0.020230046	0.419017394	0.046741358						
3.125	0.026918906	0.07225142	0.046034615	0.020053122	0.418293954	0.047144532						
3.126	0.026789087	0.070944521	0.045740264	0.019792672	0.417487826	0.047558406						
3.127	0.026654712	0.069632467	0.045444096	0.019446242	0.416600309	0.047982814						
3.128	0.026515992	0.068316185	0.045146198	0.019011408	0.41563285	0.048417583						
3.129	0.026373156	0.066996602	0.044846663	0.018485777	0.414587046	0.048862536						
3.13	0.02622645	0.065674649	0.044545587	0.017866999	0.413464641	0.04931749						
3.131	0.026076136	0.064351256	0.044243072	0.01715276	0.412267519	0.049782258						
3.132	0.025922494	0.063027354	0.043939225	0.016340796	0.410997706	0.050256646						
3.133	0.02576582	0.061703873	0.043634157	0.015428887	0.409657364	0.050740462						
3.134	0.025606428	0.060381743	0.043327984	0.014414871	0.408248788	0.051233507						
3.135	0.025444649	0.05906189	0.043020826	0.013296639	0.406774399	0.051735581						
3.136	0.02528083	0.057745239	0.042712808	0.012072144	0.405236742	0.052246484						
3.137	0.025115334	0.056432713	0.042404061	0.010739402	0.403638481	0.052766013						
3.138	0.024948543	0.055125229	0.042094717	0.009296501	0.401982391	0.053293965						
3.139	0.024780854	0.053823702	0.041784914	0.007741598	0.400271357	0.053830137						
3.14	0.02461268	0.052529043	0.041474794	0.006072927	0.398508363	0.054374328						
3.141	0.024444451	0.051242155	0.041164504	0.004288801	0.396696489	0.054926338						
3.142	0.024276613	0.049963938	0.040854192	0.002387621	0.394838903	0.055485966						
3.143	0.024109627	0.048695287	0.040544011	0.00036787	0.392938857	0.056053018						
3.144	0.023943971	0.047437089	0.040234118	0.001771872	0.390999679	0.056627299						
3.145	0.023780138	0.046190225	0.039924674	0.004032932	0.389024763	0.05720862						
3.146	0.023618635	0.04495557	0.039615841	0.006416539	0.387017569	0.057796794						
3.147	0.023459985	0.04373399	0.039307784	0.008923816	0.38498161	0.05839164						
3.148	0.023304725	0.042526346	0.039000675	0.011555781	0.382920448	0.058992982						
3.149	0.023153407	0.041333489	0.038694683	0.014313342	0.380837687	0.059600648						
3.15	0.023006596	0.040156264	0.038389984	0.017197293	0.378736965	0.060214474						
3.151	0.022864871	0.038995508	0.038086754	0.020208311	0.376621947	0.060834302						
3.152	0.022728824	0.037852049	0.037785173	0.02334695	0.374496318	0.061459979						
3.153	0.022599059	0.036726706	0.037485421	0.026613644	0.372363778	0.062091362						
